# xmcd CD database file generated by Grip 3.0.0
# 
# Track frame offsets:
#       150
#       13607
#       27945
#       42057
#       55725
#       69515
#       82832
#       97975
#       112495
#       125652
#       138557
#       153012
#       166925
#       181762
#       197397
#       210540
#       224870
#       238100
# 
# Disc length: 3364 seconds
# 
# Revision: 2
# Processed by: cddbd v1.4PL0 Copyright (c) Steve Scherf et al.
# Submitted via: Grip 3.0.0
# 
DISCID=f40d2212
DTITLE=Billie Holiday - The Masters Disc 1
DYEAR=1997
DGENRE=Blues
TTITLE0=Falling In Love Again
TTITLE1=I'm All For You
TTITLE2=I Wished On The Moon
TTITLE3=I'm Painting The Town Red
TTITLE4=Twenty Four Hours A Day
TTITLE5=Spreadin' Rhythm Around
TTITLE6=It's Like Reaching For The Moon
TTITLE7=I Cried For You
TTITLE8=Summertime
TTITLE9=A Fine Romance
TTITLE10=Easy To Love
TTITLE11=The Way You Look Tonight
TTITLE12=Pennies From Heaven
TTITLE13=I Can't Give You Anything But Love
TTITLE14=I've Got Love To Keep Me Warm
TTITLE15=This Year's Kisses
TTITLE16=I Must Have That Man
TTITLE17=(This is) My Last Affair
EXTD=
EXTT0=
EXTT1=
EXTT2=
EXTT3=
EXTT4=
EXTT5=
EXTT6=
EXTT7=
EXTT8=
EXTT9=
EXTT10=
EXTT11=
EXTT12=
EXTT13=
EXTT14=
EXTT15=
EXTT16=
EXTT17=
PLAYORDER=
